<svg xmlns="http://www.w3.org/2000/svg" viewBox="0 0 1440 100" preserveAspectRatio="none"><defs><mask id="dry"><rect x="-20" y="0" width="1480" height="100" fill="#fff"/><rect x="842.6" y="39.4" width="17.6" height="1.5" rx="1.4" fill="#000" opacity="0.85"/><rect x="1276.4" y="42.7" width="87.0" height="1.0" rx="1.4" fill="#000" opacity="0.82"/><rect x="820.4" y="73.0" width="87.5" height="2.3" rx="1.4" fill="#000" opacity="0.62"/><rect x="542.8" y="43.7" width="65.0" height="2.7" rx="1.4" fill="#000" opacity="0.80"/><rect x="1191.8" y="52.9" width="22.8" height="2.7" rx="1.4" fill="#000" opacity="0.90"/><rect x="398.1" y="68.5" width="102.8" height="2.8" rx="1.4" fill="#000" opacity="0.68"/><rect x="781.7" y="48.6" width="87.9" height="1.7" rx="1.4" fill="#000" opacity="0.91"/><rect x="1165.3" y="36.0" width="23.3" height="1.5" rx="1.4" fill="#000" opacity="0.91"/><rect x="948.9" y="60.0" width="11.9" height="2.4" rx="1.4" fill="#000" opacity="0.58"/><rect x="1003.8" y="65.3" width="11.6" height="2.7" rx="1.4" fill="#000" opacity="0.44"/><rect x="1370.3" y="33.6" width="118.7" height="1.3" rx="1.4" fill="#000" opacity="0.90"/><rect x="198.6" y="38.4" width="101.8" height="1.8" rx="1.4" fill="#000" opacity="0.88"/><rect x="43.6" y="33.5" width="29.3" height="1.8" rx="1.4" fill="#000" opacity="0.91"/><rect x="819.9" y="57.1" width="125.6" height="2.8" rx="1.4" fill="#000" opacity="0.92"/><rect x="439.3" y="52.8" width="103.5" height="2.0" rx="1.4" fill="#000" opacity="0.91"/><rect x="61.4" y="83.9" width="71.4" height="1.3" rx="1.4" fill="#000" opacity="0.48"/><rect x="1309.2" y="58.1" width="79.8" height="2.2" rx="1.4" fill="#000" opacity="0.72"/><rect x="351.1" y="41.2" width="123.1" height="2.0" rx="1.4" fill="#000" opacity="0.89"/><rect x="522.0" y="50.4" width="124.0" height="1.4" rx="1.4" fill="#000" opacity="0.91"/><rect x="104.5" y="49.1" width="88.1" height="1.2" rx="1.4" fill="#000" opacity="0.67"/><rect x="328.3" y="35.0" width="145.3" height="2.0" rx="1.4" fill="#000" opacity="0.91"/><rect x="23.0" y="40.9" width="117.4" height="1.1" rx="1.4" fill="#000" opacity="0.87"/><rect x="974.4" y="34.7" width="46.6" height="1.2" rx="1.4" fill="#000" opacity="0.91"/><rect x="1178.1" y="64.0" width="19.6" height="2.2" rx="1.4" fill="#000" opacity="0.45"/><rect x="466.6" y="54.0" width="100.3" height="1.7" rx="1.4" fill="#000" opacity="0.86"/><rect x="1193.4" y="57.8" width="104.0" height="2.6" rx="1.4" fill="#000" opacity="0.85"/><rect x="735.5" y="44.3" width="94.4" height="2.1" rx="1.4" fill="#000" opacity="0.83"/><rect x="121.6" y="72.3" width="13.7" height="1.4" rx="1.4" fill="#000" opacity="0.65"/><rect x="682.2" y="36.9" width="128.5" height="1.0" rx="1.4" fill="#000" opacity="0.92"/><rect x="884.4" y="44.3" width="70.4" height="1.9" rx="1.4" fill="#000" opacity="0.81"/><rect x="212.2" y="52.0" width="69.8" height="1.8" rx="1.4" fill="#000" opacity="0.92"/><rect x="350.9" y="78.2" width="35.8" height="1.3" rx="1.4" fill="#000" opacity="0.53"/><rect x="683.8" y="52.6" width="17.4" height="2.8" rx="1.4" fill="#000" opacity="0.88"/><rect x="984.1" y="39.2" width="108.3" height="1.9" rx="1.4" fill="#000" opacity="0.85"/><rect x="956.1" y="84.3" width="34.1" height="2.3" rx="1.4" fill="#000" opacity="0.47"/><rect x="273.5" y="69.3" width="12.9" height="1.5" rx="1.4" fill="#000" opacity="0.65"/><rect x="1401.4" y="53.8" width="68.3" height="1.6" rx="1.4" fill="#000" opacity="0.92"/><rect x="1049.2" y="58.5" width="110.0" height="1.3" rx="1.4" fill="#000" opacity="0.81"/><rect x="1353.1" y="33.9" width="108.3" height="1.9" rx="1.4" fill="#000" opacity="0.89"/><rect x="68.9" y="89.2" width="74.6" height="1.8" rx="1.4" fill="#000" opacity="0.44"/><rect x="1424.8" y="39.3" width="91.9" height="1.7" rx="1.4" fill="#000" opacity="0.92"/><rect x="1292.2" y="56.8" width="87.4" height="2.9" rx="1.4" fill="#000" opacity="0.92"/><rect x="53.7" y="50.0" width="73.4" height="1.1" rx="1.4" fill="#000" opacity="0.92"/><rect x="426.7" y="55.6" width="20.4" height="1.1" rx="1.4" fill="#000" opacity="0.89"/><rect x="722.6" y="82.6" width="42.4" height="2.1" rx="1.4" fill="#000" opacity="0.45"/><rect x="137.7" y="52.6" width="95.2" height="2.8" rx="1.4" fill="#000" opacity="0.92"/><rect x="293.0" y="50.0" width="13.3" height="2.1" rx="1.4" fill="#000" opacity="0.74"/><rect x="529.9" y="44.6" width="96.5" height="2.5" rx="1.4" fill="#000" opacity="0.80"/><rect x="635.6" y="80.4" width="86.1" height="1.4" rx="1.4" fill="#000" opacity="0.50"/><rect x="107.9" y="52.7" width="129.7" height="2.6" rx="1.4" fill="#000" opacity="0.91"/><rect x="99.7" y="56.5" width="48.1" height="1.2" rx="1.4" fill="#000" opacity="0.87"/><rect x="338.3" y="42.3" width="20.6" height="2.4" rx="1.4" fill="#000" opacity="0.83"/><rect x="397.6" y="50.0" width="69.9" height="1.2" rx="1.4" fill="#000" opacity="0.92"/><rect x="1078.4" y="58.3" width="89.8" height="2.8" rx="1.4" fill="#000" opacity="0.83"/><rect x="819.1" y="50.3" width="64.7" height="2.6" rx="1.4" fill="#000" opacity="0.71"/><rect x="1042.9" y="48.4" width="96.3" height="1.5" rx="1.4" fill="#000" opacity="0.71"/><rect x="170.2" y="76.3" width="16.3" height="1.3" rx="1.4" fill="#000" opacity="0.59"/><rect x="396.9" y="34.3" width="22.1" height="2.5" rx="1.4" fill="#000" opacity="0.89"/><rect x="53.9" y="67.9" width="28.3" height="1.7" rx="1.4" fill="#000" opacity="0.76"/><rect x="873.5" y="59.2" width="32.1" height="1.9" rx="1.4" fill="#000" opacity="0.55"/><rect x="-1.8" y="57.4" width="95.8" height="2.7" rx="1.4" fill="#000" opacity="0.85"/><rect x="754.3" y="73.2" width="29.8" height="2.4" rx="1.4" fill="#000" opacity="0.66"/><rect x="1140.4" y="41.3" width="28.3" height="1.6" rx="1.4" fill="#000" opacity="0.82"/><rect x="613.9" y="78.2" width="49.7" height="2.5" rx="1.4" fill="#000" opacity="0.50"/><rect x="1395.7" y="71.0" width="62.4" height="1.2" rx="1.4" fill="#000" opacity="0.48"/><rect x="56.4" y="75.4" width="112.9" height="1.1" rx="1.4" fill="#000" opacity="0.59"/><rect x="1267.4" y="58.8" width="61.8" height="1.4" rx="1.4" fill="#000" opacity="0.75"/><rect x="801.2" y="52.5" width="65.0" height="2.5" rx="1.4" fill="#000" opacity="0.88"/><rect x="342.4" y="55.6" width="158.0" height="2.7" rx="1.4" fill="#000" opacity="0.89"/><rect x="565.3" y="57.4" width="23.5" height="2.7" rx="1.4" fill="#000" opacity="0.56"/><rect x="227.6" y="65.5" width="25.1" height="2.4" rx="1.4" fill="#000" opacity="0.80"/><rect x="1143.7" y="77.5" width="39.4" height="2.4" rx="1.4" fill="#000" opacity="0.51"/><rect x="1148.5" y="57.9" width="46.5" height="1.0" rx="1.4" fill="#000" opacity="0.55"/><rect x="249.7" y="44.0" width="63.7" height="1.6" rx="1.4" fill="#000" opacity="0.79"/><rect x="538.9" y="52.3" width="85.4" height="2.4" rx="1.4" fill="#000" opacity="0.92"/><rect x="1170.7" y="38.3" width="142.3" height="2.4" rx="1.4" fill="#000" opacity="0.84"/><rect x="1146.1" y="55.9" width="54.3" height="2.2" rx="1.4" fill="#000" opacity="0.70"/><rect x="394.9" y="58.2" width="19.8" height="1.2" rx="1.4" fill="#000" opacity="0.69"/><rect x="1089.0" y="40.0" width="114.7" height="1.6" rx="1.4" fill="#000" opacity="0.86"/><rect x="1025.5" y="80.1" width="14.7" height="2.5" rx="1.4" fill="#000" opacity="0.49"/><rect x="1289.8" y="49.0" width="93.6" height="2.7" rx="1.4" fill="#000" opacity="0.70"/><rect x="284.8" y="51.8" width="68.9" height="2.8" rx="1.4" fill="#000" opacity="0.65"/><rect x="774.2" y="35.0" width="71.0" height="1.0" rx="1.4" fill="#000" opacity="0.89"/><rect x="933.5" y="55.8" width="139.4" height="2.8" rx="1.4" fill="#000" opacity="0.84"/><rect x="139.0" y="66.7" width="97.6" height="2.1" rx="1.4" fill="#000" opacity="0.73"/></mask></defs><path d="M-20,100 L-20,57.4 L-20,57.4 L-15,58.4 L-10,57.5 L-5,58.6 L0,54.3 L5,56.6 L10,59.1 L15,57.8 L20,59.1 L25,55.2 L30,57.1 L35,56.0 L40,57.5 L45,57.7 L50,54.9 L55,55.9 L60,56.2 L65,59.3 L70,58.5 L75,55.4 L80,58.5 L85,55.1 L90,57.4 L95,54.8 L100,54.0 L105,58.2 L110,54.8 L115,54.6 L120,58.3 L125,57.6 L130,54.5 L135,57.6 L140,55.3 L145,55.8 L150,53.3 L155,56.7 L160,55.3 L165,56.4 L170,55.8 L175,52.7 L180,52.8 L185,51.6 L190,51.2 L195,50.6 L200,51.6 L205,52.9 L210,49.7 L215,52.9 L220,51.0 L225,50.7 L230,53.0 L235,51.1 L240,50.2 L245,50.8 L250,51.8 L255,48.4 L260,52.9 L265,48.0 L270,51.5 L275,51.9 L280,47.6 L285,51.4 L290,49.2 L295,50.2 L300,47.3 L305,47.5 L310,48.1 L315,52.0 L320,48.2 L325,51.0 L330,51.9 L335,51.9 L340,49.0 L345,49.1 L350,50.0 L355,51.3 L360,48.0 L365,51.3 L370,51.6 L375,52.1 L380,48.0 L385,52.7 L390,48.5 L395,49.9 L400,51.4 L405,53.1 L410,50.3 L415,53.4 L420,51.6 L425,50.6 L430,50.8 L435,50.2 L440,49.9 L445,50.4 L450,53.2 L455,54.9 L460,50.9 L465,50.4 L470,55.3 L475,53.1 L480,52.6 L485,51.9 L490,53.8 L495,55.0 L500,53.3 L505,53.2 L510,51.5 L515,55.8 L520,51.5 L525,53.8 L530,55.6 L535,52.1 L540,55.1 L545,56.2 L550,54.6 L555,55.3 L560,51.9 L565,53.5 L570,52.0 L575,55.4 L580,52.5 L585,53.2 L590,55.8 L595,54.9 L600,55.4 L605,52.6 L610,52.6 L615,53.6 L620,52.1 L625,50.9 L630,51.3 L635,49.7 L640,50.6 L645,53.4 L650,52.9 L655,50.9 L660,50.0 L665,48.8 L670,47.2 L675,47.8 L680,50.0 L685,50.0 L690,47.1 L695,48.8 L700,48.4 L705,47.5 L710,47.0 L715,47.0 L720,44.6 L725,45.9 L730,43.3 L735,43.9 L740,44.9 L745,44.1 L750,41.6 L755,44.4 L760,42.5 L765,41.7 L770,38.4 L775,40.7 L780,38.8 L785,40.4 L790,39.0 L795,40.3 L800,39.1 L805,39.4 L810,36.8 L815,37.9 L820,38.0 L825,38.1 L830,35.3 L835,37.5 L840,37.3 L845,36.0 L850,37.2 L855,36.8 L860,34.3 L865,34.1 L870,32.0 L875,35.2 L880,35.4 L885,32.9 L890,33.8 L895,33.8 L900,33.7 L905,30.7 L910,33.7 L915,32.6 L920,32.9 L925,31.6 L930,32.5 L935,33.2 L940,32.5 L945,32.9 L950,29.4 L955,30.1 L960,31.5 L965,32.6 L970,30.5 L975,32.9 L980,32.7 L985,29.9 L990,32.1 L995,31.0 L1000,30.2 L1005,30.8 L1010,31.8 L1015,31.3 L1020,31.5 L1025,30.9 L1030,33.2 L1035,32.9 L1040,34.3 L1045,34.3 L1050,32.8 L1055,36.3 L1060,32.0 L1065,34.2 L1070,33.7 L1075,34.6 L1080,33.3 L1085,37.0 L1090,34.9 L1095,33.4 L1100,36.5 L1105,34.1 L1110,36.5 L1115,35.6 L1120,37.0 L1125,39.1 L1130,38.5 L1135,36.6 L1140,38.7 L1145,38.0 L1150,36.8 L1155,35.7 L1160,38.1 L1165,38.0 L1170,40.1 L1175,40.2 L1180,38.4 L1185,37.2 L1190,39.9 L1195,35.5 L1200,36.1 L1205,38.3 L1210,38.6 L1215,36.2 L1220,38.6 L1225,39.9 L1230,37.3 L1235,37.5 L1240,36.4 L1245,36.6 L1250,39.9 L1255,36.9 L1260,39.7 L1265,39.3 L1270,37.6 L1275,35.8 L1280,39.3 L1285,36.7 L1290,36.1 L1295,35.5 L1300,38.7 L1305,36.1 L1310,34.9 L1315,35.6 L1320,33.7 L1325,36.0 L1330,35.0 L1335,34.0 L1340,36.3 L1345,36.4 L1350,32.1 L1355,34.6 L1360,33.1 L1365,36.3 L1370,35.3 L1375,32.5 L1380,32.5 L1385,31.8 L1390,35.8 L1395,32.2 L1400,33.7 L1405,32.9 L1410,33.7 L1415,33.4 L1420,34.1 L1425,30.9 L1430,34.0 L1435,31.7 L1440,32.9 L1445,31.9 L1450,31.7 L1455,32.9 L1460,32.6 L1460,100 Z" fill="#1d212a" mask="url(#dry)"/><path fill="#1d212a" d="M-5.2,56.5 L-2.9,56.5 L-5.4,49.8 Z"/><path fill="#1d212a" d="M7.1,56.9 L9.3,56.9 L9.1,48.9 Z"/><path fill="#1d212a" d="M13.6,57.0 L15.0,57.0 L13.4,48.6 Z"/><path fill="#1d212a" d="M25.3,57.2 L27.2,57.2 L25.0,50.8 Z"/><path fill="#1d212a" d="M44.9,57.3 L47.3,57.3 L45.4,49.3 Z"/><path fill="#1d212a" d="M62.1,57.2 L63.8,57.2 L61.4,49.2 Z"/><path fill="#1d212a" d="M67.0,57.2 L68.9,57.2 L66.4,53.3 Z"/><path fill="#1d212a" d="M108.4,56.3 L109.6,56.3 L108.5,52.9 Z"/><path fill="#1d212a" d="M122.2,55.8 L123.8,55.8 L121.5,49.5 Z"/><path fill="#1d212a" d="M128.8,55.5 L131.2,55.5 L131.8,49.6 Z"/><path fill="#1d212a" d="M141.2,55.1 L142.7,55.1 L142.9,49.2 Z"/><path fill="#1d212a" d="M149.6,54.7 L151.5,54.7 L151.7,48.7 Z"/><path fill="#1d212a" d="M156.6,54.4 L158.3,54.4 L155.6,46.3 Z"/><path fill="#1d212a" d="M162.8,54.2 L164.2,54.2 L161.9,50.7 Z"/><path fill="#1d212a" d="M175.9,53.6 L177.4,53.6 L177.9,41.6 Z"/><path fill="#1d212a" d="M185.7,53.2 L187.2,53.2 L186.5,47.4 Z"/><path fill="#1d212a" d="M189.9,53.0 L191.6,53.0 L189.1,37.1 Z"/><path fill="#1d212a" d="M206.9,52.3 L208.7,52.3 L209.4,46.7 Z"/><path fill="#1d212a" d="M218.1,51.8 L220.3,51.8 L220.5,46.3 Z"/><path fill="#1d212a" d="M226.7,51.5 L228.9,51.5 L226.4,32.2 Z"/><path fill="#1d212a" d="M235.1,51.2 L236.4,51.2 L235.4,29.3 Z"/><path fill="#1d212a" d="M240.5,51.0 L241.6,51.0 L239.7,44.0 Z"/><path fill="#1d212a" d="M246.2,50.8 L248.5,50.8 L246.1,42.5 Z"/><path fill="#1d212a" d="M264.4,50.4 L265.4,50.4 L263.7,29.1 Z"/><path fill="#1d212a" d="M270.0,50.2 L272.1,50.2 L269.7,45.0 Z"/><path fill="#1d212a" d="M284.4,50.0 L285.9,50.0 L284.6,43.1 Z"/><path fill="#1d212a" d="M299.5,49.8 L301.3,49.8 L301.3,45.2 Z"/><path fill="#1d212a" d="M304.0,49.7 L306.1,49.7 L304.7,46.7 Z"/><path fill="#1d212a" d="M318.8,49.7 L320.3,49.7 L318.9,46.5 Z"/><path fill="#1d212a" d="M322.5,49.7 L324.8,49.7 L323.1,42.8 Z"/><path fill="#1d212a" d="M347.4,49.8 L348.5,49.8 L347.7,41.2 Z"/><path fill="#1d212a" d="M374.3,50.3 L376.1,50.3 L374.0,44.3 Z"/><path fill="#1d212a" d="M380.9,50.4 L382.1,50.4 L383.3,45.3 Z"/><path fill="#1d212a" d="M386.1,50.5 L387.5,50.5 L388.1,43.1 Z"/><path fill="#1d212a" d="M393.2,50.7 L394.6,50.7 L395.4,46.2 Z"/><path fill="#1d212a" d="M404.1,51.0 L405.9,51.0 L403.0,43.5 Z"/><path fill="#1d212a" d="M440.6,52.0 L441.7,52.0 L441.0,48.5 Z"/><path fill="#1d212a" d="M455.4,52.4 L456.6,52.4 L457.1,44.4 Z"/><path fill="#1d212a" d="M460.5,52.6 L462.2,52.6 L462.9,45.0 Z"/><path fill="#1d212a" d="M466.5,52.8 L468.8,52.8 L466.5,48.2 Z"/><path fill="#1d212a" d="M471.2,52.9 L473.0,52.9 L472.7,47.3 Z"/><path fill="#1d212a" d="M476.2,53.0 L477.8,53.0 L477.3,45.9 Z"/><path fill="#1d212a" d="M484.7,53.2 L486.4,53.2 L487.1,47.2 Z"/><path fill="#1d212a" d="M505.8,53.6 L507.3,53.6 L508.1,49.1 Z"/><path fill="#1d212a" d="M528.5,53.9 L530.3,53.9 L527.6,45.8 Z"/><path fill="#1d212a" d="M537.6,53.9 L538.9,53.9 L537.9,46.6 Z"/><path fill="#1d212a" d="M543.1,53.9 L544.7,53.9 L545.4,46.6 Z"/><path fill="#1d212a" d="M547.1,53.9 L549.2,53.9 L549.8,45.3 Z"/><path fill="#1d212a" d="M554.2,53.9 L555.2,53.9 L555.0,49.5 Z"/><path fill="#1d212a" d="M559.0,53.8 L561.3,53.8 L560.0,45.2 Z"/><path fill="#1d212a" d="M579.2,53.5 L581.6,53.5 L580.1,47.2 Z"/><path fill="#1d212a" d="M593.3,53.2 L594.8,53.2 L595.3,44.7 Z"/><path fill="#1d212a" d="M599.9,53.0 L601.5,53.0 L600.5,44.3 Z"/><path fill="#1d212a" d="M614.9,52.4 L616.6,52.4 L616.8,47.9 Z"/><path fill="#1d212a" d="M621.8,52.1 L623.8,52.1 L621.2,44.9 Z"/><path fill="#1d212a" d="M631.0,51.6 L632.6,51.6 L632.3,48.1 Z"/><path fill="#1d212a" d="M639.2,51.2 L641.0,51.2 L639.1,47.6 Z"/><path fill="#1d212a" d="M644.8,50.9 L646.9,50.9 L645.2,47.1 Z"/><path fill="#1d212a" d="M667.3,49.4 L668.4,49.4 L667.5,41.2 Z"/><path fill="#1d212a" d="M702.5,46.7 L704.0,46.7 L704.1,39.7 Z"/><path fill="#1d212a" d="M720.6,45.2 L722.7,45.2 L723.0,37.4 Z"/><path fill="#1d212a" d="M731.1,44.2 L733.3,44.2 L731.2,35.4 Z"/><path fill="#1d212a" d="M750.5,42.5 L752.3,42.5 L752.4,35.6 Z"/><path fill="#1d212a" d="M757.2,41.9 L758.7,41.9 L758.3,34.5 Z"/><path fill="#1d212a" d="M765.1,41.3 L766.4,41.3 L767.1,37.9 Z"/><path fill="#1d212a" d="M769.9,40.8 L771.1,40.8 L770.3,33.2 Z"/><path fill="#1d212a" d="M817.2,37.0 L818.5,37.0 L816.1,15.1 Z"/><path fill="#1d212a" d="M822.9,36.5 L824.2,36.5 L821.6,33.0 Z"/><path fill="#1d212a" d="M829.1,36.1 L830.3,36.1 L831.5,30.8 Z"/><path fill="#1d212a" d="M842.7,35.2 L843.8,35.2 L843.1,29.7 Z"/><path fill="#1d212a" d="M896.1,32.6 L897.4,32.6 L897.5,27.7 Z"/><path fill="#1d212a" d="M903.8,32.4 L905.3,32.4 L903.0,24.4 Z"/><path fill="#1d212a" d="M911.1,32.2 L912.1,32.2 L910.2,27.5 Z"/><path fill="#1d212a" d="M916.6,32.1 L918.9,32.1 L919.1,25.8 Z"/><path fill="#1d212a" d="M926.9,31.9 L928.7,31.9 L928.8,28.6 Z"/><path fill="#1d212a" d="M951.6,31.8 L953.0,31.8 L951.5,23.9 Z"/><path fill="#1d212a" d="M959.4,31.8 L961.4,31.8 L960.8,27.5 Z"/><path fill="#1d212a" d="M970.2,31.9 L971.6,31.9 L971.6,12.4 Z"/><path fill="#1d212a" d="M998.2,32.5 L999.9,32.5 L997.3,27.8 Z"/><path fill="#1d212a" d="M1005.7,32.6 L1007.1,32.6 L1008.2,29.1 Z"/><path fill="#1d212a" d="M1011.3,32.8 L1012.5,32.8 L1011.3,24.1 Z"/><path fill="#1d212a" d="M1022.3,33.1 L1024.2,33.1 L1023.1,18.5 Z"/><path fill="#1d212a" d="M1030.9,33.4 L1032.3,33.4 L1032.9,28.7 Z"/><path fill="#1d212a" d="M1037.2,33.6 L1039.0,33.6 L1037.9,25.6 Z"/><path fill="#1d212a" d="M1050.3,34.1 L1052.5,34.1 L1050.7,28.5 Z"/><path fill="#1d212a" d="M1063.7,34.6 L1064.7,34.6 L1062.6,27.2 Z"/><path fill="#1d212a" d="M1075.4,35.1 L1077.3,35.1 L1074.5,30.4 Z"/><path fill="#1d212a" d="M1081.7,35.3 L1083.5,35.3 L1084.0,28.1 Z"/><path fill="#1d212a" d="M1098.1,35.9 L1100.0,35.9 L1097.5,31.0 Z"/><path fill="#1d212a" d="M1106.3,36.2 L1108.6,36.2 L1107.0,27.5 Z"/><path fill="#1d212a" d="M1127.3,36.9 L1128.8,36.9 L1129.8,32.8 Z"/><path fill="#1d212a" d="M1133.1,37.0 L1135.0,37.0 L1133.9,31.4 Z"/><path fill="#1d212a" d="M1138.8,37.2 L1140.2,37.2 L1139.5,30.2 Z"/><path fill="#1d212a" d="M1159.3,37.6 L1161.6,37.6 L1158.6,33.7 Z"/><path fill="#1d212a" d="M1166.3,37.7 L1167.6,37.7 L1168.9,34.5 Z"/><path fill="#1d212a" d="M1174.3,37.8 L1175.5,37.8 L1173.6,34.6 Z"/><path fill="#1d212a" d="M1183.2,37.9 L1184.4,37.9 L1185.8,34.5 Z"/><path fill="#1d212a" d="M1204.3,38.0 L1205.6,38.0 L1205.8,34.6 Z"/><path fill="#1d212a" d="M1210.3,38.0 L1212.5,38.0 L1212.3,29.9 Z"/><path fill="#1d212a" d="M1225.3,37.9 L1226.4,37.9 L1224.9,33.2 Z"/><path fill="#1d212a" d="M1231.4,37.8 L1232.9,37.8 L1234.0,33.4 Z"/><path fill="#1d212a" d="M1250.8,37.5 L1253.0,37.5 L1253.1,30.7 Z"/><path fill="#1d212a" d="M1256.7,37.4 L1258.0,37.4 L1255.4,30.9 Z"/><path fill="#1d212a" d="M1262.0,37.3 L1263.8,37.3 L1262.0,30.3 Z"/><path fill="#1d212a" d="M1269.6,37.1 L1271.5,37.1 L1271.4,24.8 Z"/><path fill="#1d212a" d="M1277.2,36.9 L1279.2,36.9 L1276.5,19.0 Z"/><path fill="#1d212a" d="M1282.1,36.8 L1284.2,36.8 L1282.5,33.2 Z"/><path fill="#1d212a" d="M1296.7,36.3 L1298.7,36.3 L1297.0,29.7 Z"/><path fill="#1d212a" d="M1302.5,36.2 L1303.7,36.2 L1302.9,29.3 Z"/><path fill="#1d212a" d="M1309.4,35.9 L1310.4,35.9 L1309.9,27.4 Z"/><path fill="#1d212a" d="M1314.6,35.8 L1316.2,35.8 L1317.0,31.8 Z"/><path fill="#1d212a" d="M1319.3,35.6 L1320.3,35.6 L1318.7,28.9 Z"/><path fill="#1d212a" d="M1330.8,35.2 L1332.0,35.2 L1332.1,29.3 Z"/><path fill="#1d212a" d="M1337.8,34.9 L1340.2,34.9 L1339.4,27.3 Z"/><path fill="#1d212a" d="M1349.6,34.6 L1351.5,34.6 L1351.0,29.3 Z"/><path fill="#1d212a" d="M1372.4,33.9 L1373.5,33.9 L1374.0,27.1 Z"/><path fill="#1d212a" d="M1377.0,33.7 L1379.1,33.7 L1377.9,26.4 Z"/><path fill="#1d212a" d="M1386.0,33.5 L1387.5,33.5 L1387.6,24.5 Z"/><path fill="#1d212a" d="M1394.7,33.3 L1396.4,33.3 L1396.7,26.4 Z"/><path fill="#1d212a" d="M1402.9,33.1 L1404.8,33.1 L1405.7,26.4 Z"/><path fill="#1d212a" d="M1415.2,32.9 L1417.2,32.9 L1415.5,11.5 Z"/><path fill="#1d212a" d="M1447.7,32.7 L1449.4,32.7 L1446.7,25.7 Z"/></svg>